<?xml version="1.0" encoding="UTF-8" standalone="no"?>
<!-- Created with Inkscape (http://www.inkscape.org/) -->

<svg
   width="78.395782mm"
   height="43.706169mm"
   viewBox="0 0 78.395782 43.706169"
   version="1.1"
   id="svg5"
   xml:space="preserve"
   inkscape:version="1.2.2 (b0a8486541, 2022-12-01)"
   sodipodi:docname="logo_sark.svg"
   xmlns:inkscape="http://www.inkscape.org/namespaces/inkscape"
   xmlns:sodipodi="http://sodipodi.sourceforge.net/DTD/sodipodi-0.dtd"
   xmlns="http://www.w3.org/2000/svg"
   xmlns:svg="http://www.w3.org/2000/svg"><sodipodi:namedview
     id="namedview7"
     pagecolor="#ffffff"
     bordercolor="#000000"
     borderopacity="0.25"
     inkscape:showpageshadow="2"
     inkscape:pageopacity="0.0"
     inkscape:pagecheckerboard="0"
     inkscape:deskcolor="#d1d1d1"
     inkscape:document-units="mm"
     showgrid="false"
     inkscape:zoom="0.73673541"
     inkscape:cx="-123.51789"
     inkscape:cy="234.14105"
     inkscape:window-width="1920"
     inkscape:window-height="1008"
     inkscape:window-x="0"
     inkscape:window-y="0"
     inkscape:window-maximized="1"
     inkscape:current-layer="g13976" /><defs
     id="defs2"><linearGradient
       id="linearGradient9095"
       inkscape:swatch="gradient"><stop
         style="stop-color:#ca1414;stop-opacity:0;"
         offset="0"
         id="stop9091" /><stop
         style="stop-color:#f2f2f2;stop-opacity:0;"
         offset="1"
         id="stop9093" /></linearGradient><linearGradient
       id="linearGradient3374"
       inkscape:swatch="solid"><stop
         style="stop-color:#000000;stop-opacity:1;"
         offset="0"
         id="stop3372" /></linearGradient><rect
       x="266.34869"
       y="602.92297"
       width="250.67484"
       height="130.56725"
       id="rect2570" /><rect
       x="262.67377"
       y="369.00607"
       width="242.16936"
       height="105.097"
       id="rect1312" /></defs><g
     inkscape:label="Layer 1"
     inkscape:groupmode="layer"
     id="layer1"
     transform="translate(-49.025833,-77.478081)"><rect
       style="fill:#f3f5fa;fill-opacity:1;fill-rule:nonzero;stroke-width:0.163949"
       id="rect111"
       width="78.395782"
       height="43.706169"
       x="49.025833"
       y="-121.18425"
       transform="scale(1,-1)"
       ry="7.5439382" /><g
       id="g13976"
       transform="translate(0.02656607,0.75221386)"><g
         aria-label="SARK"
         transform="matrix(0.33512954,0,0,0.4768358,-32.880341,-91.258181)"
         id="text1310"
         style="font-size:53.3333px;white-space:pre;shape-inside:url(#rect1312);display:inline;fill:#1058d4"><path
           d="m 277.88215,418.28771 q -2.78645,0 -5.54687,-0.59895 -2.76041,-0.59896 -5.54687,-1.74479 v -5.59896 q 2.94271,1.875 5.67708,2.78646 2.63021,0.88541 5.33854,0.88541 3.98437,0 6.22395,-1.77083 2.21354,-1.77083 2.21354,-5.1302 0,-2.78646 -1.51041,-4.29688 -0.83334,-0.85937 -2.10938,-1.40625 -1.25,-0.54687 -3.20312,-0.98958 l -2.8125,-0.65104 q -2.63021,-0.59896 -4.60937,-1.48437 -1.95312,-0.88542 -3.25521,-2.21354 -2.44791,-2.44792 -2.44791,-6.64062 0,-5.28646 3.51562,-8.38542 1.66667,-1.48437 3.98437,-2.29166 2.34375,-0.80729 5.3125,-0.80729 2.26562,0 4.71354,0.49479 1.22396,0.26042 2.52604,0.65104 1.30208,0.36458 2.68229,0.88542 v 5.33853 q -1.25,-0.80729 -2.44792,-1.35416 -1.17187,-0.57292 -2.34374,-0.96354 -2.42188,-0.78125 -4.84375,-0.78125 -3.72396,0 -5.91146,1.74479 -2.16145,1.74479 -2.16145,4.79166 0,1.32813 0.36458,2.23958 0.39062,0.88542 1.06771,1.53646 1.48437,1.40625 5.28645,2.29167 l 2.76042,0.625 q 5.39062,1.22395 7.9427,4.01041 2.52604,2.68229 2.52604,7.39583 0,2.96875 -0.91146,5.07812 -0.91145,2.08333 -2.5,3.4375 -3.41145,2.91666 -9.97395,2.91666 z"
           style="font-family:Hack;-inkscape-font-specification:Hack"
           id="path14014" /><path
           d="m 307.64776,378.65232 h 6.3802 l 11.90104,38.88019 h -5.44271 l -2.86458,-10.13021 h -13.61978 l -2.8125,10.13021 h -5.4427 z m 8.72395,24.53124 -5.54687,-19.89582 -5.54687,19.89582 z"
           style="font-family:Hack;-inkscape-font-specification:Hack"
           id="path14016" /><path
           d="m 330.6165,378.65232 h 10.83332 q 6.43229,0 9.81771,2.89063 3.41145,2.91666 3.41145,8.2552 0,2.05729 -0.52083,3.61979 -0.52083,1.53646 -1.5625,2.76041 -2.05729,2.44792 -5.91146,2.99479 2.10938,0.52084 3.46354,1.95313 0.72917,0.7552 1.5625,2.13541 0.85938,1.35417 2.00521,3.64583 l 5.28646,10.625 h -5.65104 l -4.63542,-9.81771 q -1.01562,-2.16145 -1.92708,-3.48958 -0.88541,-1.32812 -1.66666,-1.92708 -0.8073,-0.625 -1.90104,-0.91146 -1.06771,-0.28645 -2.29167,-0.28645 h -5.02604 v 16.43228 h -5.28645 z m 11.04166,18.12499 q 3.77604,0 5.62499,-1.69271 1.84896,-1.6927 1.84896,-5.1302 0,-3.41146 -1.95312,-5.20833 -0.9375,-0.83333 -2.36979,-1.30208 -1.40625,-0.46875 -3.35938,-0.46875 h -5.54687 v 13.80207 z"
           style="font-family:Hack;-inkscape-font-specification:Hack"
           id="path14018" /><path
           d="m 362.5696,378.65232 h 5.28645 v 17.29166 l 16.43229,-17.29166 h 6.17187 l -15.1302,15.88541 15.5729,22.99478 h -6.35416 l -12.68228,-19.47916 -4.01042,4.27083 v 15.20833 h -5.28645 z"
           style="font-family:Hack;-inkscape-font-specification:Hack"
           id="path14020" /></g><path
         d="m 106.7711,89.332451 c -2.59486,1.06019 -4.45082,3.46339 -4.45082,6.24936 0,2.78597 1.85596,5.189179 4.45082,6.249359 v -1.57296 c -1.75541,-0.939769 -2.93662,-2.651919 -2.93662,-4.676399 0,-2.02449 1.18121,-3.73664 2.93662,-4.67639 z m 8.80988,0 v 1.57297 c 1.75541,0.93975 2.93663,2.6519 2.93663,4.67639 0,2.02448 -1.18122,3.73663 -2.93663,4.676399 v 1.57296 c 2.59486,-1.06018 4.45082,-3.463389 4.45082,-6.249359 0,-2.78597 -1.85596,-5.18917 -4.45082,-6.24936 z m -7.34157,2.42322 c -1.6989,0.56711 -2.93662,2.06214 -2.93662,3.82614 0,1.76399 1.23772,3.25903 2.93662,3.82614 v -1.48795 c -0.87646,-0.46896 -1.46831,-1.32664 -1.46831,-2.33819 0,-1.01156 0.59185,-1.86924 1.46831,-2.3382 z m 5.87326,0 v 1.48794 c 0.87646,0.46896 1.46831,1.32664 1.46831,2.3382 0,1.01155 -0.59185,1.86923 -1.46831,2.33819 v 1.48795 c 1.6989,-0.56711 2.93662,-2.06215 2.93662,-3.82614 0,-1.764 -1.23772,-3.25903 -2.93662,-3.82614 z m -3.16605,2.46573 c -0.41297,0.0638 -1.23889,0.3401 -1.23889,1.36041 v 10.883239 h -4.40494 v 1.3604 h 11.7465 v -1.3604 h -4.40494 V 95.581811 c 0,-1.36041 -1.46831,-1.36041 -1.46831,-1.36041 0,0 -0.0918,-0.0212 -0.22942,0 z"
         id="mast-communications"
         style="fill:#1058d4;fill-opacity:1;stroke:none;stroke-width:1.41333" /></g></g></svg>
